{
    "asset" : {
        "generator" : "Khronos glTF Blender I/O v1.6.16",
        "version" : "2.0"
    },
    "scene" : 0,
    "scenes" : [
        {
            "name" : "Scene",
            "nodes" : [
                1,
                2,
                3,
                4,
                5,
                6,
                7
            ]
        }
    ],
    "nodes" : [
        {
            "camera" : 0,
            "name" : "Camera_Orientation",
            "rotation" : [
                -0.7071067690849304,
                0,
                0,
                0.7071067690849304
            ]
        },
        {
            "children" : [
                0
            ],
            "name" : "Camera",
            "rotation" : [
                0.7071068286895752,
                0,
                0,
                0.7071068286895752
            ],
            "translation" : [
                0,
                0,
                12
            ]
        },
        {
            "mesh" : 0,
            "name" : "capa1",
            "rotation" : [
                0.7071068286895752,
                0,
                0,
                0.7071068286895752
            ],
            "translation" : [
                -15.278388023376465,
                -0.7560160160064697,
                6.42048978805542
            ]
        },
        {
            "mesh" : 1,
            "name" : "capa2",
            "rotation" : [
                0.7071068286895752,
                0,
                0,
                0.7071068286895752
            ],
            "scale" : [
                0.48270630836486816,
                0.48270630836486816,
                0.48270630836486816
            ],
            "translation" : [
                -4.442855358123779,
                -0.34460121393203735,
                5.113080024719238
            ]
        },
        {
            "mesh" : 2,
            "name" : "capa3",
            "rotation" : [
                0.7071068286895752,
                0,
                0,
                0.7071068286895752
            ],
            "translation" : [
                -2.760716438293457,
                -0.7308250069618225,
                2.0408549308776855
            ]
        },
        {
            "mesh" : 3,
            "name" : "capa4",
            "rotation" : [
                0.7071068286895752,
                0,
                0,
                0.7071068286895752
            ],
            "scale" : [
                1.949659824371338,
                1.949659824371338,
                1.949659824371338
            ],
            "translation" : [
                -5.065631866455078,
                -0.5193089246749878,
                -3.019071102142334
            ]
        },
        {
            "mesh" : 4,
            "name" : "sky",
            "rotation" : [
                0.7071068286895752,
                0,
                0,
                0.7071068286895752
            ],
            "scale" : [
                0.5034074187278748,
                0.52476966381073,
                0.2849712371826172
            ],
            "translation" : [
                0,
                0,
                -8.9844970703125
            ]
        },
        {
            "mesh" : 5,
            "name" : "sun",
            "rotation" : [
                0.7071068286895752,
                0,
                0,
                0.7071068286895752
            ],
            "scale" : [
                1.510658621788025,
                1.510658621788025,
                1.510658621788025
            ],
            "translation" : [
                0,
                0.32235077023506165,
                -4.245091915130615
            ]
        }
    ],
    "cameras" : [
        {
            "name" : "Camera",
            "perspective" : {
                "aspectRatio" : 1.7777777777777777,
                "yfov" : 0.3090548214952429,
                "zfar" : 1000,
                "znear" : 0.10000000149011612
            },
            "type" : "perspective"
        }
    ],
    "animations" : [
        {
            "channels" : [
                {
                    "sampler" : 0,
                    "target" : {
                        "node" : 2,
                        "path" : "translation"
                    }
                }
            ],
            "name" : "BezierCurve.003Action",
            "samplers" : [
                {
                    "input" : 24,
                    "interpolation" : "LINEAR",
                    "output" : 25
                }
            ]
        },
        {
            "channels" : [
                {
                    "sampler" : 0,
                    "target" : {
                        "node" : 3,
                        "path" : "translation"
                    }
                }
            ],
            "name" : "capa2Action.001",
            "samplers" : [
                {
                    "input" : 26,
                    "interpolation" : "LINEAR",
                    "output" : 27
                }
            ]
        },
        {
            "channels" : [
                {
                    "sampler" : 0,
                    "target" : {
                        "node" : 4,
                        "path" : "translation"
                    }
                }
            ],
            "name" : "mountain.002Action",
            "samplers" : [
                {
                    "input" : 26,
                    "interpolation" : "LINEAR",
                    "output" : 28
                }
            ]
        },
        {
            "channels" : [
                {
                    "sampler" : 0,
                    "target" : {
                        "node" : 5,
                        "path" : "translation"
                    }
                }
            ],
            "name" : "capa4Action.001",
            "samplers" : [
                {
                    "input" : 29,
                    "interpolation" : "LINEAR",
                    "output" : 30
                }
            ]
        }
    ],
    "materials" : [
        {
            "doubleSided" : true,
            "name" : "Material",
            "pbrMetallicRoughness" : {
                "baseColorFactor" : [
                    0.003095809370279312,
                    0.0012857411056756973,
                    0,
                    1
                ],
                "metallicFactor" : 0,
                "roughnessFactor" : 0
            }
        },
        {
            "doubleSided" : true,
            "name" : "Material.001",
            "pbrMetallicRoughness" : {
                "baseColorFactor" : [
                    0.05741880461573601,
                    0.003086287761107087,
                    0.002452491084113717,
                    1
                ],
                "metallicFactor" : 0,
                "roughnessFactor" : 0.5
            }
        },
        {
            "doubleSided" : true,
            "name" : "Material.003",
            "pbrMetallicRoughness" : {
                "baseColorFactor" : [
                    0.12611250579357147,
                    0.009578393772244453,
                    0.009839984588325024,
                    1
                ],
                "metallicFactor" : 0,
                "roughnessFactor" : 0.5
            }
        },
        {
            "doubleSided" : true,
            "name" : "Material.004",
            "pbrMetallicRoughness" : {
                "baseColorFactor" : [
                    0.5148239135742188,
                    0.024235833436250687,
                    0.011065663769841194,
                    1
                ],
                "metallicFactor" : 0,
                "roughnessFactor" : 0.5
            }
        },
        {
            "doubleSided" : true,
            "name" : "Material.007",
            "pbrMetallicRoughness" : {
                "baseColorTexture" : {
                    "index" : 0
                },
                "metallicFactor" : 0,
                "roughnessFactor" : 0.5
            }
        },
        {
            "doubleSided" : true,
            "name" : "Material.005",
            "pbrMetallicRoughness" : {
                "baseColorFactor" : [
                    0.8000000715255737,
                    0.7712322473526001,
                    0,
                    1
                ],
                "metallicFactor" : 0,
                "roughnessFactor" : 0.5
            }
        }
    ],
    "meshes" : [
        {
            "name" : "BezierCurve.005",
            "primitives" : [
                {
                    "attributes" : {
                        "POSITION" : 0,
                        "NORMAL" : 1,
                        "TEXCOORD_0" : 2
                    },
                    "indices" : 3,
                    "material" : 0
                }
            ]
        },
        {
            "name" : "BezierCurve.003",
            "primitives" : [
                {
                    "attributes" : {
                        "POSITION" : 4,
                        "NORMAL" : 5,
                        "TEXCOORD_0" : 6
                    },
                    "indices" : 7,
                    "material" : 1
                }
            ]
        },
        {
            "name" : "BezierCurve.006",
            "primitives" : [
                {
                    "attributes" : {
                        "POSITION" : 8,
                        "NORMAL" : 9,
                        "TEXCOORD_0" : 10
                    },
                    "indices" : 11,
                    "material" : 2
                }
            ]
        },
        {
            "name" : "BezierCurve.009",
            "primitives" : [
                {
                    "attributes" : {
                        "POSITION" : 12,
                        "NORMAL" : 13,
                        "TEXCOORD_0" : 14
                    },
                    "indices" : 15,
                    "material" : 3
                }
            ]
        },
        {
            "name" : "Plane.002",
            "primitives" : [
                {
                    "attributes" : {
                        "POSITION" : 16,
                        "NORMAL" : 17,
                        "TEXCOORD_0" : 18
                    },
                    "indices" : 19,
                    "material" : 4
                }
            ]
        },
        {
            "name" : "Circle",
            "primitives" : [
                {
                    "attributes" : {
                        "POSITION" : 20,
                        "NORMAL" : 21,
                        "TEXCOORD_0" : 22
                    },
                    "indices" : 23,
                    "material" : 5
                }
            ]
        }
    ],
    "textures" : [
        {
            "sampler" : 0,
            "source" : 0
        }
    ],
    "images" : [
        {
            "bufferView" : 20,
            "mimeType" : "image/jpeg",
            "name" : "gradientColor"
        }
    ],
    "accessors" : [
        {
            "bufferView" : 0,
            "componentType" : 5126,
            "count" : 510,
            "max" : [
                16.831043243408203,
                3.07548759792553e-08,
                0.6508840322494507
            ],
            "min" : [
                -16.644092559814453,
                -4.5212452448595286e-08,
                -0.12736564874649048
            ],
            "type" : "VEC3"
        },
        {
            "bufferView" : 1,
            "componentType" : 5126,
            "count" : 510,
            "type" : "VEC3"
        },
        {
            "bufferView" : 2,
            "componentType" : 5126,
            "count" : 510,
            "type" : "VEC2"
        },
        {
            "bufferView" : 3,
            "componentType" : 5123,
            "count" : 1518,
            "type" : "SCALAR"
        },
        {
            "bufferView" : 4,
            "componentType" : 5126,
            "count" : 990,
            "max" : [
                15.020613670349121,
                1.4283833138506452e-07,
                2.1560215950012207
            ],
            "min" : [
                -14.133724212646484,
                -1.9100332337984582e-07,
                -1.577549695968628
            ],
            "type" : "VEC3"
        },
        {
            "bufferView" : 5,
            "componentType" : 5126,
            "count" : 990,
            "type" : "VEC3"
        },
        {
            "bufferView" : 6,
            "componentType" : 5126,
            "count" : 990,
            "type" : "VEC2"
        },
        {
            "bufferView" : 7,
            "componentType" : 5123,
            "count" : 2958,
            "type" : "SCALAR"
        },
        {
            "bufferView" : 8,
            "componentType" : 5126,
            "count" : 96,
            "max" : [
                5.527980804443359,
                2.0731745209445762e-08,
                0.8359898328781128
            ],
            "min" : [
                -5.543760299682617,
                -2.540739174605733e-08,
                -0.2623118460178375
            ],
            "type" : "VEC3"
        },
        {
            "bufferView" : 9,
            "componentType" : 5126,
            "count" : 96,
            "type" : "VEC3"
        },
        {
            "bufferView" : 10,
            "componentType" : 5126,
            "count" : 96,
            "type" : "VEC2"
        },
        {
            "bufferView" : 11,
            "componentType" : 5123,
            "count" : 276,
            "type" : "SCALAR"
        },
        {
            "bufferView" : 12,
            "componentType" : 5126,
            "count" : 276,
            "max" : [
                4.746029853820801,
                1.8715526906021296e-08,
                0.8215444087982178
            ],
            "min" : [
                -5.575702667236328,
                -2.457149683721127e-08,
                -0.21260817348957062
            ],
            "type" : "VEC3"
        },
        {
            "bufferView" : 13,
            "componentType" : 5126,
            "count" : 276,
            "type" : "VEC3"
        },
        {
            "bufferView" : 14,
            "componentType" : 5126,
            "count" : 276,
            "type" : "VEC2"
        },
        {
            "bufferView" : 15,
            "componentType" : 5123,
            "count" : 816,
            "type" : "SCALAR"
        },
        {
            "bufferView" : 16,
            "componentType" : 5126,
            "count" : 4,
            "max" : [
                11.729999542236328,
                0,
                11.729999542236328
            ],
            "min" : [
                -11.729999542236328,
                0,
                -11.729999542236328
            ],
            "type" : "VEC3"
        },
        {
            "bufferView" : 17,
            "componentType" : 5126,
            "count" : 4,
            "type" : "VEC3"
        },
        {
            "bufferView" : 18,
            "componentType" : 5126,
            "count" : 4,
            "type" : "VEC2"
        },
        {
            "bufferView" : 19,
            "componentType" : 5123,
            "count" : 6,
            "type" : "SCALAR"
        },
        {
            "bufferView" : 21,
            "componentType" : 5126,
            "count" : 32,
            "max" : [
                1,
                0,
                1
            ],
            "min" : [
                -1,
                0,
                -1
            ],
            "type" : "VEC3"
        },
        {
            "bufferView" : 22,
            "componentType" : 5126,
            "count" : 32,
            "type" : "VEC3"
        },
        {
            "bufferView" : 23,
            "componentType" : 5126,
            "count" : 32,
            "type" : "VEC2"
        },
        {
            "bufferView" : 24,
            "componentType" : 5123,
            "count" : 90,
            "type" : "SCALAR"
        },
        {
            "bufferView" : 25,
            "componentType" : 5126,
            "count" : 241,
            "max" : [
                8
            ],
            "min" : [
                0
            ],
            "type" : "SCALAR"
        },
        {
            "bufferView" : 26,
            "componentType" : 5126,
            "count" : 241,
            "type" : "VEC3"
        },
        {
            "bufferView" : 27,
            "componentType" : 5126,
            "count" : 452,
            "max" : [
                15.033333333333333
            ],
            "min" : [
                0
            ],
            "type" : "SCALAR"
        },
        {
            "bufferView" : 28,
            "componentType" : 5126,
            "count" : 452,
            "type" : "VEC3"
        },
        {
            "bufferView" : 29,
            "componentType" : 5126,
            "count" : 452,
            "type" : "VEC3"
        },
        {
            "bufferView" : 30,
            "componentType" : 5126,
            "count" : 901,
            "max" : [
                30
            ],
            "min" : [
                0
            ],
            "type" : "SCALAR"
        },
        {
            "bufferView" : 31,
            "componentType" : 5126,
            "count" : 901,
            "type" : "VEC3"
        }
    ],
    "bufferViews" : [
        {
            "buffer" : 0,
            "byteLength" : 6120,
            "byteOffset" : 0
        },
        {
            "buffer" : 0,
            "byteLength" : 6120,
            "byteOffset" : 6120
        },
        {
            "buffer" : 0,
            "byteLength" : 4080,
            "byteOffset" : 12240
        },
        {
            "buffer" : 0,
            "byteLength" : 3036,
            "byteOffset" : 16320
        },
        {
            "buffer" : 0,
            "byteLength" : 11880,
            "byteOffset" : 19356
        },
        {
            "buffer" : 0,
            "byteLength" : 11880,
            "byteOffset" : 31236
        },
        {
            "buffer" : 0,
            "byteLength" : 7920,
            "byteOffset" : 43116
        },
        {
            "buffer" : 0,
            "byteLength" : 5916,
            "byteOffset" : 51036
        },
        {
            "buffer" : 0,
            "byteLength" : 1152,
            "byteOffset" : 56952
        },
        {
            "buffer" : 0,
            "byteLength" : 1152,
            "byteOffset" : 58104
        },
        {
            "buffer" : 0,
            "byteLength" : 768,
            "byteOffset" : 59256
        },
        {
            "buffer" : 0,
            "byteLength" : 552,
            "byteOffset" : 60024
        },
        {
            "buffer" : 0,
            "byteLength" : 3312,
            "byteOffset" : 60576
        },
        {
            "buffer" : 0,
            "byteLength" : 3312,
            "byteOffset" : 63888
        },
        {
            "buffer" : 0,
            "byteLength" : 2208,
            "byteOffset" : 67200
        },
        {
            "buffer" : 0,
            "byteLength" : 1632,
            "byteOffset" : 69408
        },
        {
            "buffer" : 0,
            "byteLength" : 48,
            "byteOffset" : 71040
        },
        {
            "buffer" : 0,
            "byteLength" : 48,
            "byteOffset" : 71088
        },
        {
            "buffer" : 0,
            "byteLength" : 32,
            "byteOffset" : 71136
        },
        {
            "buffer" : 0,
            "byteLength" : 12,
            "byteOffset" : 71168
        },
        {
            "buffer" : 0,
            "byteLength" : 59745,
            "byteOffset" : 71180
        },
        {
            "buffer" : 0,
            "byteLength" : 384,
            "byteOffset" : 130928
        },
        {
            "buffer" : 0,
            "byteLength" : 384,
            "byteOffset" : 131312
        },
        {
            "buffer" : 0,
            "byteLength" : 256,
            "byteOffset" : 131696
        },
        {
            "buffer" : 0,
            "byteLength" : 180,
            "byteOffset" : 131952
        },
        {
            "buffer" : 0,
            "byteLength" : 964,
            "byteOffset" : 132132
        },
        {
            "buffer" : 0,
            "byteLength" : 2892,
            "byteOffset" : 133096
        },
        {
            "buffer" : 0,
            "byteLength" : 1808,
            "byteOffset" : 135988
        },
        {
            "buffer" : 0,
            "byteLength" : 5424,
            "byteOffset" : 137796
        },
        {
            "buffer" : 0,
            "byteLength" : 5424,
            "byteOffset" : 143220
        },
        {
            "buffer" : 0,
            "byteLength" : 3604,
            "byteOffset" : 148644
        },
        {
            "buffer" : 0,
            "byteLength" : 10812,
            "byteOffset" : 152248
        }
    ],
    "samplers" : [
        {
            "magFilter" : 9729,
            "minFilter" : 9987
        }
    ],
    "buffers" : [
        {
            "byteLength" : 163060,
            "uri" : "data:application/octet-stream;base64,"
        }
    ]
}
